<svg id="Capa_1" enable-background="new 0 0 512 512" height="512" viewBox="0 0 512 512" width="512" xmlns="http://www.w3.org/2000/svg"><g><g><g><path d="m284.616 86.74h-203.735c-29.78 0-53.922 24.141-53.922 53.922v309.917c0 29.78 24.141 53.922 53.922 53.922h203.735c29.78 0 53.922-24.142 53.922-53.922v-309.917c-.001-29.78-24.142-53.922-53.922-53.922z" fill="#ccbaeb"/><path d="m66.959 447.333v-73.92c0-9.481 7.686-17.167 17.167-17.167h197.244c9.481 0 17.167 7.686 17.167 17.167v73.92c0 9.481-7.686 17.167-17.167 17.167h-197.244c-9.481 0-17.167-7.686-17.167-17.167z" fill="#f6f9f9"/><path d="m298.537 143.907v151.278c0 9.481-7.686 17.167-17.167 17.167h-197.246c-9.481 0-17.167-7.686-17.167-17.167v-151.278c0-9.481 7.686-17.167 17.167-17.167h197.246c9.481 0 17.167 7.686 17.167 17.167z" fill="#adc9fa"/></g><path d="m431.119 7.5h-203.736c-29.78 0-53.922 24.141-53.922 53.922v309.917c0 29.78 24.142 53.922 53.922 53.922h203.735c29.78 0 53.922-24.141 53.922-53.922v-309.917c0-29.781-24.141-53.922-53.921-53.922z" fill="#e27f83"/><path d="m213.462 368.093v-73.92c0-9.481 7.686-17.167 17.167-17.167h197.245c9.481 0 17.167 7.686 17.167 17.167v73.92c0 9.481-7.686 17.167-17.167 17.167h-197.245c-9.481 0-17.167-7.686-17.167-17.167z" fill="#f6f9f9"/><path d="m445.04 64.667v151.278c0 9.481-7.686 17.167-17.167 17.167h-197.246c-9.481 0-17.167-7.686-17.167-17.167v-151.278c0-9.481 7.686-17.167 17.167-17.167h197.247c9.48 0 17.166 7.686 17.166 17.167z" fill="#bfe19f"/><path d="m309.629 85.254-50.487 87.446c-8.721 15.104 2.18 33.985 19.621 33.985h100.974c17.441 0 28.342-18.88 19.621-33.985l-50.487-87.446c-8.72-15.104-30.522-15.104-39.242 0z" fill="#f5dd81"/><g><path d="m371.085 150.306c-8.19 14.67-23.85 24.59-41.84 24.59-17.98 0-33.65-9.92-41.83-24.59 5.25-9.4 13.57-16.86 23.62-20.99v-.01c5.61-2.31 11.76-3.59 18.21-3.59s12.61 1.28 18.22 3.6c10.04 4.13 18.37 11.59 23.62 20.99z" fill="#f6f9f9"/><path d="m348.555 135.716c0 10.67-8.64 19.31-19.31 19.31-10.66 0-19.3-8.64-19.3-19.31 0-2.25.38-4.39 1.09-6.4v-.01c5.61-2.31 11.76-3.59 18.21-3.59s12.61 1.28 18.22 3.6c.71 2 1.09 4.16 1.09 6.4z" fill="#e27f83"/></g></g><g><path d="m148.965 404.614h-56.051c-4.143 0-7.5 3.358-7.5 7.5s3.357 7.5 7.5 7.5h56.052c4.143 0 7.5-3.358 7.5-7.5s-3.358-7.5-7.501-7.5z"/><path d="m431.119 0h-203.736c-33.867 0-61.421 27.554-61.421 61.421v17.819h-85.083c-33.867 0-61.42 27.553-61.42 61.42v258.35c0 4.142 3.357 7.5 7.5 7.5s7.5-3.358 7.5-7.5v-258.35c0-25.596 20.824-46.42 46.42-46.42h85.083v25h-81.842c-13.597 0-24.659 11.067-24.659 24.67v151.27c0 13.603 11.062 24.67 24.659 24.67h81.843v28.9h-81.833c-13.604 0-24.67 11.062-24.67 24.66v73.92c0 13.603 11.066 24.67 24.67 24.67h197.24c13.604 0 24.671-11.067 24.671-24.67v-14.57h24.999v17.82c0 25.596-20.824 46.42-46.42 46.42h-203.741c-25.596 0-46.42-20.824-46.42-46.42v-21.57c0-4.142-3.357-7.5-7.5-7.5s-7.5 3.358-7.5 7.5v21.57c0 33.867 27.553 61.42 61.42 61.42h203.74c33.867 0 61.42-27.553 61.42-61.42v-17.82h85.079c33.868 0 61.422-27.554 61.422-61.421v-309.918c.001-33.867-27.553-61.421-61.421-61.421zm-346.999 304.85c-5.326 0-9.659-4.338-9.659-9.67v-151.27c0-5.332 4.333-9.67 9.659-9.67h81.843v170.61zm206.921 142.48c0 5.332-4.338 9.67-9.671 9.67h-197.24c-5.332 0-9.67-4.338-9.67-9.67v-73.92c0-5.327 4.338-9.66 9.67-9.66h81.832v7.588c0 1.801.094 3.58.247 5.342h-73.3c-4.143 0-7.5 3.358-7.5 7.5s3.357 7.5 7.5 7.5h76.53c8.415 23.898 31.205 41.08 57.944 41.08h63.657v14.57zm186.5-75.992c0 25.597-20.825 46.421-46.422 46.421h-203.736c-25.597 0-46.421-20.825-46.421-46.421v-309.917c0-25.597 20.824-46.421 46.421-46.421h203.735c25.597 0 46.422 20.825 46.422 46.421v309.917z"/><path d="m427.874 269.507h-197.246c-13.601 0-24.666 11.065-24.666 24.667v73.92c0 13.601 11.065 24.667 24.666 24.667h197.245c13.602 0 24.667-11.065 24.667-24.667v-73.92c.001-13.602-11.065-24.667-24.666-24.667zm9.667 98.586c0 5.33-4.337 9.667-9.667 9.667h-197.246c-5.33 0-9.666-4.336-9.666-9.667v-73.92c0-5.33 4.336-9.667 9.666-9.667h197.245c5.33 0 9.667 4.336 9.667 9.667v73.92z"/><path d="m230.629 240.61h197.24c13.604 0 24.67-11.067 24.67-24.67v-23.7c0-4.142-3.357-7.5-7.5-7.5s-7.5 3.358-7.5 7.5v23.7c0 5.332-4.338 9.67-9.67 9.67h-197.24c-5.332 0-9.67-4.338-9.67-9.67v-151.27c0-5.332 4.338-9.67 9.67-9.67h197.24c5.332 0 9.67 4.338 9.67 9.67v97.57c0 4.142 3.357 7.5 7.5 7.5s7.5-3.358 7.5-7.5v-97.57c0-13.603-11.066-24.67-24.67-24.67h-197.24c-13.604 0-24.67 11.067-24.67 24.67v151.27c0 13.603 11.067 24.67 24.67 24.67z"/><path d="m369.773 297.44h-130.356c-4.143 0-7.5 3.358-7.5 7.5s3.357 7.5 7.5 7.5h130.356c4.143 0 7.5-3.358 7.5-7.5s-3.357-7.5-7.5-7.5z"/><path d="m327.208 325.374h-87.791c-4.143 0-7.5 3.358-7.5 7.5s3.357 7.5 7.5 7.5h87.791c4.143 0 7.5-3.358 7.5-7.5s-3.358-7.5-7.5-7.5z"/><path d="m278.763 214.185h100.974c10.902 0 20.665-5.637 26.116-15.078s5.451-20.715 0-30.157l-50.486-87.446c-5.451-9.441-15.215-15.079-26.116-15.079-10.902 0-20.666 5.637-26.117 15.079l-50.486 87.446c-5.451 9.441-5.451 20.715 0 30.157s15.213 15.078 26.115 15.078zm37.361-125.181c2.74-4.745 7.646-7.579 13.127-7.579 5.479 0 10.386 2.833 13.126 7.579l26.537 45.964c-10.295-10.558-24.548-16.749-39.664-16.749-15.114 0-29.365 6.189-39.66 16.744zm24.901 45.981c.015.243.03.485.03.731 0 6.512-5.298 11.81-11.81 11.81-6.507 0-11.8-5.298-11.8-11.81 0-.246.016-.489.03-.732 3.766-1.151 7.727-1.765 11.773-1.765 4.049 0 8.01.614 11.777 1.766zm-37.667 7.661c3.062 11.435 13.505 19.881 25.887 19.881 12.386 0 22.833-8.445 25.896-19.879 2.657 2.221 5.052 4.781 7.089 7.66-7.525 10.636-19.806 17.088-32.981 17.088-13.177 0-25.457-6.452-32.982-17.088 2.038-2.88 4.433-5.441 7.091-7.662zm-37.721 33.804 14.389-24.924c.139.843.41 1.668.839 2.436 9.788 17.538 28.327 28.433 48.384 28.433 20.056 0 38.595-10.895 48.383-28.433.429-.769.701-1.595.84-2.439l14.391 24.926c2.739 4.746 2.74 10.412 0 15.157-2.739 4.745-7.646 7.578-13.126 7.578h-100.974c-5.479 0-10.387-2.833-13.126-7.578-2.74-4.744-2.739-10.41 0-15.156z"/><path d="m388.056 109.389c1.465 1.464 3.385 2.197 5.304 2.197s3.839-.732 5.304-2.197l20.451-20.451c2.929-2.929 2.929-7.678 0-10.606-2.93-2.929-7.678-2.929-10.607 0l-20.451 20.451c-2.93 2.928-2.93 7.677-.001 10.606z"/><path d="m431.653 121.637c-.775-4.07-4.71-6.74-8.771-5.964l-20.95 3.991c-4.069.775-6.739 4.702-5.964 8.771.685 3.595 3.829 6.098 7.358 6.098.466 0 .938-.043 1.412-.134l20.95-3.991c4.07-.776 6.74-4.702 5.965-8.771z"/><path d="m383.219 65.215c-3.837-1.562-8.213.28-9.775 4.116l-5.486 13.469c-1.562 3.836.281 8.213 4.117 9.775.926.377 1.884.556 2.826.556 2.959 0 5.764-1.763 6.949-4.672l5.486-13.468c1.563-3.837-.281-8.213-4.117-9.776z"/><path d="m249.993 78.331c-2.93-2.929-7.678-2.929-10.607 0s-2.929 7.678 0 10.606l20.451 20.451c1.465 1.464 3.385 2.197 5.304 2.197s3.839-.732 5.304-2.197c2.929-2.929 2.929-7.678 0-10.606z"/><path d="m226.847 121.637c-.775 4.069 1.895 7.996 5.964 8.771l20.95 3.991c.474.09.946.134 1.412.134 3.529 0 6.674-2.503 7.358-6.098.775-4.069-1.895-7.996-5.964-8.771l-20.95-3.991c-4.062-.776-7.995 1.895-8.77 5.964z"/><path d="m283.599 93.131c.941 0 1.9-.179 2.826-.556 3.836-1.562 5.68-5.939 4.117-9.775l-5.486-13.468c-1.563-3.835-5.942-5.679-9.775-4.116-3.836 1.562-5.68 5.939-4.117 9.775l5.486 13.468c1.185 2.91 3.989 4.672 6.949 4.672z"/></g></g></svg>