<svg height="512pt" viewBox="-98 0 512 512" width="512pt" xmlns="http://www.w3.org/2000/svg"><path d="m8.535156 85.332031h8.53125c4.714844 0 8.535156 3.820313 8.535156 8.535157v34.132812c0 4.710938-3.820312 8.535156-8.535156 8.535156h-8.53125c-4.714844 0-8.535156-3.824218-8.535156-8.535156v-34.132812c0-4.714844 3.820312-8.535157 8.535156-8.535157zm0 0" fill="#586270"/><path d="m8.535156 153.601562h8.53125c4.714844 0 8.535156 3.820313 8.535156 8.53125v34.132813c0 4.714844-3.820312 8.535156-8.535156 8.535156h-8.53125c-4.714844 0-8.535156-3.820312-8.535156-8.535156v-34.132813c0-4.710937 3.820312-8.53125 8.535156-8.53125zm0 0" fill="#586270"/><path d="m51.199219 8.535156h221.867187c18.851563 0 34.132813 15.28125 34.132813 34.132813v426.664062c0 18.851563-15.28125 34.132813-34.132813 34.132813h-221.867187c-18.851563 0-34.132813-15.28125-34.132813-34.132813v-426.664062c0-18.851563 15.28125-34.132813 34.132813-34.132813zm0 0" fill="#354aa3"/><path d="m51.199219 8.535156h196.265625c18.851562 0 34.136718 15.28125 34.136718 34.132813v426.664062c0 18.851563-15.285156 34.132813-34.136718 34.132813h-196.265625c-18.851563 0-34.132813-15.28125-34.132813-34.132813v-426.664062c0-18.851563 15.28125-34.132813 34.132813-34.132813zm0 0" fill="#5068c1"/><path d="m17.066406 76.800781h290.132813v358.398438h-290.132813zm0 0" fill="#00939f"/><path d="m17.066406 76.800781h264.535156v358.398438h-264.535156zm0 0" fill="#00c6db"/><path d="m307.199219 214.273438v220.925781h-290.132813v-140.628907c46.335938-56.746093 135.339844-120.148437 290.132813-80.296874zm0 0" fill="#00939f"/><path d="m273.066406 264.535156c0 2.898438-.085937 5.714844-.339844 8.53125-4.539062 57.714844-52.699218 102.238282-110.59375 102.238282-57.894531 0-106.054687-44.523438-110.589843-102.238282-.257813-2.816406-.34375-5.632812-.34375-8.53125h76.800781c-.027344 2.878906.347656 5.75 1.109375 8.53125.988281 3.921875 2.695313 7.625 5.035156 10.921875 7.59375 10.964844 20.886719 16.492188 34.015625 14.140625 13.128906-2.351562 23.679688-12.144531 26.996094-25.0625.761719-2.78125 1.136719-5.652344 1.109375-8.53125zm0 0" fill="#d7dee2"/><path d="m273.066406 264.535156h-76.800781c.027344-2.882812-.347656-5.753906-1.109375-8.535156-3.925781-15.023438-17.496094-25.503906-33.023438-25.503906-15.527343 0-29.097656 10.480468-33.023437 25.503906-.761719 2.78125-1.136719 5.652344-1.109375 8.535156h-76.800781c-.03125-2.851562.113281-5.703125.425781-8.535156 4.429688-57.777344 52.605469-102.398438 110.550781-102.398438 57.949219 0 106.121094 44.621094 110.550781 102.398438.253907 2.816406.339844 5.632812.339844 8.535156zm0 0" fill="#f85b44"/><path d="m196.265625 469.332031c0 18.851563-15.28125 34.132813-34.132813 34.132813-18.851562 0-34.132812-15.28125-34.132812-34.132813 0-18.851562 15.28125-34.132812 34.132812-34.132812 18.851563 0 34.132813 15.28125 34.132813 34.132812zm0 0" fill="#354aa3"/><path d="m204.800781 264.535156c0 23.5625-19.101562 42.664063-42.667969 42.664063-23.5625 0-42.667968-19.101563-42.667968-42.664063 0-23.566406 19.105468-42.667968 42.667968-42.667968 23.566407 0 42.667969 19.101562 42.667969 42.667968zm0 0" fill="#586270"/><path d="m187.734375 264.535156c0 14.136719-11.460937 25.597656-25.601563 25.597656-14.136718 0-25.597656-11.460937-25.597656-25.597656 0-14.140625 11.460938-25.601562 25.597656-25.601562 14.140626 0 25.601563 11.460937 25.601563 25.601562zm0 0" fill="#d7dee2"/><path d="m273.066406 273.066406h-76.800781c-4.710937 0-8.53125-3.820312-8.53125-8.53125 0-14.140625-11.460937-25.601562-25.601563-25.601562-14.136718 0-25.597656 11.460937-25.597656 25.601562 0 4.710938-3.824218 8.53125-8.535156 8.53125h-76.800781c-4.710938 0-8.53125-3.820312-8.53125-8.53125 0-65.980468 53.484375-119.46875 119.464843-119.46875 65.980469 0 119.46875 53.488282 119.46875 119.46875 0 2.261719-.902343 4.433594-2.5 6.03125-1.601562 1.601563-3.773437 2.5-6.035156 2.5zm-69.121094-17.066406h60.238282c-4.449219-53.050781-48.804688-93.839844-102.042969-93.839844-53.234375 0-97.589844 40.789063-102.039063 93.839844h60.21875c4.039063-19.886719 21.523438-34.175781 41.8125-34.175781 20.292969 0 37.777344 14.289062 41.8125 34.175781zm0 0"/><path d="m273.066406 512h-221.867187c-23.550781-.027344-42.636719-19.113281-42.664063-42.667969v-426.664062c.027344-23.554688 19.113282-42.6406252 42.664063-42.667969h221.867187c23.550782.0273438 42.640625 19.113281 42.667969 42.667969v426.664062c-.027344 23.554688-19.117187 42.640625-42.667969 42.667969zm-221.867187-494.933594c-14.136719 0-25.597657 11.460938-25.597657 25.601563v426.664062c0 14.140625 11.460938 25.601563 25.597657 25.601563h221.867187c14.140625 0 25.601563-11.460938 25.601563-25.601563v-426.664062c0-14.140625-11.460938-25.601563-25.601563-25.601563zm0 0"/><path d="m307.199219 85.332031h-290.132813c-4.710937 0-8.53125-3.820312-8.53125-8.53125 0-4.714843 3.820313-8.535156 8.53125-8.535156h290.132813c4.714843 0 8.535156 3.820313 8.535156 8.535156 0 4.710938-3.820313 8.53125-8.535156 8.53125zm0 0"/><path d="m307.199219 443.734375h-290.132813c-4.710937 0-8.53125-3.820313-8.53125-8.535156 0-4.710938 3.820313-8.53125 8.53125-8.53125h290.132813c4.714843 0 8.535156 3.820312 8.535156 8.53125 0 4.714843-3.820313 8.535156-8.535156 8.535156zm0 0"/><path d="m170.667969 42.667969c0 4.710937-3.820313 8.53125-8.535157 8.53125-4.710937 0-8.53125-3.820313-8.53125-8.53125 0-4.714844 3.820313-8.535157 8.53125-8.535157 4.714844 0 8.535157 3.820313 8.535157 8.535157zm0 0"/><path d="m162.132812 512c-23.5625 0-42.667968-19.101562-42.667968-42.667969 0-23.5625 19.105468-42.664062 42.667968-42.664062 23.566407 0 42.667969 19.101562 42.667969 42.664062-.027343 23.554688-19.113281 42.640625-42.667969 42.667969zm0-68.265625c-14.136718 0-25.597656 11.460937-25.597656 25.597656 0 14.140625 11.460938 25.601563 25.597656 25.601563 14.140626 0 25.601563-11.460938 25.601563-25.601563 0-14.136719-11.460937-25.597656-25.601563-25.597656zm0 0"/><path d="m8.535156 85.332031h8.53125c4.714844 0 8.535156 3.820313 8.535156 8.535157v34.132812c0 4.710938-3.820312 8.535156-8.535156 8.535156h-8.53125c-4.714844 0-8.535156-3.824218-8.535156-8.535156v-34.132812c0-4.714844 3.820312-8.535157 8.535156-8.535157zm0 0"/><path d="m8.535156 153.601562h8.53125c4.714844 0 8.535156 3.820313 8.535156 8.53125v34.132813c0 4.714844-3.820312 8.535156-8.535156 8.535156h-8.53125c-4.714844 0-8.535156-3.820312-8.535156-8.535156v-34.132813c0-4.710937 3.820312-8.53125 8.535156-8.53125zm0 0"/><path d="m162.132812 307.199219c-23.5625 0-42.667968-19.101563-42.667968-42.664063 0-23.566406 19.105468-42.667968 42.667968-42.667968 23.566407 0 42.667969 19.101562 42.667969 42.667968-.027343 23.550782-19.113281 42.636719-42.667969 42.664063zm0-68.265625c-14.136718 0-25.597656 11.460937-25.597656 25.601562 0 14.136719 11.460938 25.597656 25.597656 25.597656 14.140626 0 25.601563-11.460937 25.601563-25.597656 0-14.140625-11.460937-25.601562-25.601563-25.601562zm0 0"/><path d="m170.667969 264.535156c0 4.710938-3.820313 8.53125-8.535157 8.53125-4.710937 0-8.53125-3.820312-8.53125-8.53125 0-4.714844 3.820313-8.535156 8.53125-8.535156 4.714844 0 8.535157 3.820312 8.535157 8.535156zm0 0"/><path d="m162.132812 384c-65.949218-.070312-119.394531-53.515625-119.464843-119.464844 0-4.714844 3.820312-8.535156 8.53125-8.535156h76.800781c4.710938 0 8.535156 3.820312 8.535156 8.535156 0 14.136719 11.460938 25.597656 25.597656 25.597656 14.140626 0 25.601563-11.460937 25.601563-25.597656 0-4.714844 3.820313-8.535156 8.53125-8.535156h76.800781c4.714844 0 8.535156 3.820312 8.535156 8.535156-.070312 65.949219-53.519531 119.394532-119.46875 119.464844zm-102.042968-110.933594c4.453125 53.050782 48.808594 93.839844 102.042968 93.839844 53.234376 0 97.59375-40.789062 102.042969-93.839844h-60.230469c-4.035156 19.886719-21.519531 34.175782-41.8125 34.175782-20.289062 0-37.773437-14.289063-41.8125-34.175782zm0 0"/><path d="m247.464844 145.066406c-2.953125 0-5.699219-1.53125-7.253906-4.046875-1.554688-2.515625-1.695313-5.65625-.375-8.300781l8.535156-17.066406c2.105468-4.21875 7.234375-5.929688 11.453125-3.824219 4.214843 2.109375 5.929687 7.234375 3.820312 11.453125l-8.53125 17.066406c-1.449219 2.894532-4.410156 4.722656-7.648437 4.71875zm0 0"/><path d="m264.535156 170.667969c-3.453125-.003907-6.5625-2.082031-7.882812-5.269531-1.320313-3.1875-.59375-6.859376 1.847656-9.296876l8.535156-8.535156c3.347656-3.234375 8.667969-3.1875 11.960938.105469 3.292968 3.289063 3.335937 8.613281.105468 11.960937l-8.535156 8.535157c-1.601562 1.597656-3.769531 2.5-6.03125 2.5zm0 0"/><path d="m76.800781 145.066406c-3.25.019532-6.226562-1.8125-7.679687-4.71875l-8.535156-17.066406c-2.105469-4.21875-.394532-9.34375 3.824218-11.453125 4.21875-2.105469 9.34375-.394531 11.453125 3.824219l8.53125 17.066406c1.320313 2.640625 1.179688 5.773438-.363281 8.285156-1.546875 2.511719-4.28125 4.050782-7.230469 4.0625zm0 0"/><path d="m59.734375 170.667969c-2.265625 0-4.433594-.902344-6.035156-2.5l-8.53125-8.535157c-3.234375-3.347656-3.1875-8.671874.101562-11.960937 3.292969-3.292969 8.617188-3.339844 11.964844-.105469l8.53125 8.535156c2.441406 2.4375 3.171875 6.109376 1.851563 9.296876-1.324219 3.1875-4.433594 5.265624-7.882813 5.269531zm0 0"/></svg>