<svg id="Capa_1" enable-background="new 0 0 512.063 512.063" height="512" viewBox="0 0 512.063 512.063" width="512" xmlns="http://www.w3.org/2000/svg"><g><g><g clip-rule="evenodd" fill-rule="evenodd"><path d="m263.139 197.735 30.669-84.262-32.94-90.501c-2.822-7.753-11.473-11.787-19.225-8.965l-140.954 51.304c-7.752 2.822-11.787 11.473-8.965 19.225l51.303 140.954c2.822 7.753 11.473 11.787 19.225 8.965zm-73.565-61.129c-6.834-6.834-6.834-17.915 0-24.749s17.915-6.834 24.749 0 6.834 17.915 0 24.749c-6.835 6.834-17.915 6.834-24.749 0z" fill="#e5ecf5"/><path d="m263.139 197.735 30.669-84.262-11.972-32.892-46.297 127.2z" fill="#cad8eb"/><circle cx="201.948" cy="124.231" fill="#6e91ef" r="17.5"/><path d="m252.83 226.059c-2.822 7.753 1.212 16.404 8.965 19.225l140.954 51.303c7.753 2.822 16.404-1.212 19.225-8.965l51.303-140.954c2.822-7.752-1.212-16.404-8.965-19.225l-140.953-51.303c-7.753-2.822-16.404 1.212-19.226 8.965zm96.129-44.826c2.833-7.785 11.44-11.798 19.225-8.965s11.798 11.44 8.965 19.225-11.44 11.798-19.225 8.965c-7.785-2.834-11.799-11.44-8.965-19.225zm26.894 57.675c2.833-7.784 11.441-11.798 19.225-8.965 7.785 2.834 11.799 11.442 8.966 19.225-2.834 7.785-11.442 11.8-19.227 8.966-7.783-2.832-11.797-11.441-8.964-19.226zm-84.571-30.781c2.833-7.784 11.441-11.798 19.226-8.964 7.784 2.833 11.798 11.441 8.965 19.225-2.834 7.785-11.442 11.799-19.225 8.966-7.786-2.834-11.8-11.442-8.966-19.227zm124.317-34.564c-7.784-2.833-11.798-11.441-8.965-19.225 2.833-7.785 11.442-11.799 19.225-8.966 7.785 2.834 11.799 11.442 8.966 19.227-2.832 7.784-11.441 11.798-19.226 8.964zm-65.345-39.746c-2.833 7.784-11.441 11.798-19.225 8.965-7.785-2.833-11.799-11.442-8.966-19.225 2.834-7.785 11.442-11.799 19.227-8.966 7.784 2.833 11.798 11.441 8.964 19.226z" fill="#e5ecf5"/><path d="m322.063 123.557c-2.833 7.784 1.181 16.392 8.966 19.225 7.784 2.833 16.392-1.181 19.225-8.965 2.833-7.785-1.181-16.393-8.964-19.226-7.785-2.834-16.393 1.18-19.227 8.966zm46.121 48.711c-7.785-2.834-16.392 1.18-19.225 8.965s1.18 16.392 8.965 19.225 16.392-1.18 19.225-8.965-1.18-16.392-8.965-19.225zm26.895 57.676c-7.784-2.833-16.392 1.181-19.225 8.965-2.833 7.785 1.181 16.393 8.964 19.226 7.785 2.834 16.393-1.18 19.227-8.966 2.833-7.784-1.181-16.392-8.966-19.225zm20.52-56.381c7.785 2.833 16.393-1.181 19.226-8.964 2.834-7.785-1.18-16.393-8.966-19.227-7.784-2.833-16.392 1.181-19.225 8.966-2.833 7.784 1.181 16.392 8.965 19.225zm-96.126 44.825c2.833-7.784-1.181-16.392-8.965-19.225-7.785-2.833-16.393 1.181-19.226 8.964-2.834 7.785 1.18 16.393 8.966 19.227 7.783 2.833 16.392-1.181 19.225-8.966z" fill="#6e91ef"/><path d="m361.411 331.132-149.738-15.082-66.325 66.325 63.155 63.155 207.611-15.456 79.009-79.009c25.688-25.688-6.44-57.816-32.128-32.128l-58.048 58.048h-73.166c16.645-.144 30.82-14.061 30.206-30.467z" fill="#fbf2e2"/><path d="m148.102 358.384h35.25v138.593h-35.25z" fill="#c09fde" transform="matrix(.707 -.707 .707 .707 -253.877 242.454)"/><path d="m194.349 481.228-79.313-79.313-96.943 97.046 158.527-.004z" fill="#c09fde"/><path d="m106.419 63.225-5.73 2.085c-7.752 2.822-11.787 11.473-8.965 19.225l51.303 140.954c2.822 7.753 11.473 11.787 19.225 8.965l7.571-2.756c-1.884-1.618-3.391-3.722-4.297-6.209z" fill="#cad8eb"/><path d="m252.83 226.059c-2.822 7.753 1.212 16.404 8.965 19.225l5.781 2.105 59.057-162.284c.905-2.488 2.411-4.592 4.295-6.21l-7.57-2.755c-7.753-2.822-16.404 1.212-19.226 8.965z" fill="#cad8eb"/><path d="m189.602 458.574h35.25v21.213h-35.25z" fill="#a070ce" transform="matrix(.707 -.707 .707 .707 -271.065 283.952)"/><path d="m176.62 498.957 17.729-17.729-15-15-32.729 32.729z" fill="#a070ce"/><path d="m208.503 445.53 207.611-15.456 79.009-79.009c13.831-13.831 10.897-29.524 1.236-37.059-1.195 4.801-3.967 9.791-8.736 14.559l-79.009 79.009-221.175 16.892zm39.355-68.545v-22.5h83.922c14.174-.123 26.554-10.234 29.54-23.363l.667 15.396c.627 16.773-14.035 30.467-30.468 30.467z" fill="#f7e0ba"/></g><g><path d="m191.341 389.415-10.606-10.606 10.606-10.606 10.606 10.606zm21.214-21.213-10.606-10.606 10.606-10.606 10.606 10.606zm20.771-311.261-5.13-14.096 14.095-5.13 5.131 14.096z" fill="#fff"/></g></g><g><path d="m503.627 310.432c-5.689-5.69-13.275-8.676-21.404-8.42-6.084.195-15.28 2.369-24.533 11.623l-55.851 55.851h-39.947c5.229-6.744 7.902-14.861 7.588-23.247l-.819-21.914-159.775-16.093-63.538 63.538-16.158-16.158-35.532 35.532 10.775 10.775-104.433 104.542 74.856-.002v-15l-38.67.001 78.852-78.936 68.703 68.703-10.229 10.229-53.656.001v15l59.869-.001 14.623-14.623 7.916 7.916 35.532-35.532-12.423-12.423 194.074-14.449 80.978-80.978c9.253-9.253 11.428-18.449 11.623-24.533.259-8.111-2.731-15.712-8.421-21.402zm-301.363 168.105-87.394-87.393 14.319-14.319 87.394 87.394zm287.555-132.775-77.04 77.039-201.405 14.995-55.42-55.42 58.507-58.507 139.699 14.071.331 8.859c.21 5.629-1.967 11.111-6.132 15.434-4.394 4.561-10.449 7.198-16.642 7.253h-83.86v15h83.661v.001c.085 0 .171 0 .257-.001h76.277l60.245-60.245c4.58-4.58 9.561-7.082 14.406-7.237 3.923-.131 7.59 1.307 10.318 4.035 2.728 2.727 4.16 6.392 4.035 10.317-.155 4.845-2.658 9.827-7.237 14.406z"/><path d="m89.857 491.459h15v15h-15z"/><path d="m135.979 228.056c3.322 9.127 11.972 14.805 21.166 14.805 2.55 0 5.142-.437 7.673-1.358l85.773-31.219-4.808 13.209c-2.05 5.632-1.778 11.74.767 17.197s7.048 9.591 12.68 11.642l140.954 51.303c2.532.921 5.123 1.358 7.673 1.358 9.193 0 17.843-5.679 21.166-14.806l51.302-140.954c2.05-5.632 1.778-11.739-.767-17.197s-7.048-9.592-12.68-11.642l-63.429-23.086-5.13 14.096 63.429 23.086c1.867.679 3.364 2.06 4.216 3.886.851 1.826.946 3.86.266 5.727l-51.303 140.954c-.679 1.867-2.06 3.364-3.886 4.216-1.825.852-3.859.947-5.727.267l-140.954-51.303c-1.867-.68-3.364-2.06-4.216-3.885-.851-1.826-.946-3.86-.266-5.728l51.303-140.954c.679-1.867 2.06-3.364 3.886-4.216 1.825-.852 3.859-.947 5.727-.267l63.43 23.086 5.13-14.096-63.429-23.086c-11.656-4.241-24.595 1.789-28.839 13.448l-3.277 9.004-25.892-71.137c-4.244-11.657-17.181-17.687-28.839-13.446l-140.954 51.303c-11.658 4.244-17.69 17.181-13.447 28.838zm-36.94-151.812c.852-1.826 2.349-3.207 4.215-3.886l140.955-51.303c1.867-.679 3.901-.585 5.727.267s3.207 2.349 3.886 4.215l32.006 87.936-28.539 78.411-97.6 35.523c-3.887 1.413-8.199-.596-9.613-4.482l-51.304-140.954c-.68-1.867-.585-3.901.267-5.727z"/><path d="m355.359 207.505c2.532.921 5.123 1.358 7.673 1.358 9.193 0 17.843-5.679 21.165-14.805 4.243-11.658-1.79-24.595-13.448-28.838-11.658-4.242-24.595 1.79-28.838 13.448s1.79 24.594 13.448 28.837zm.648-23.707c1.107-3.042 3.99-4.935 7.055-4.935.85 0 1.714.146 2.558.453 3.886 1.414 5.896 5.727 4.482 9.612-1.414 3.886-5.724 5.898-9.612 4.482-3.887-1.414-5.898-5.726-4.483-9.612z"/><path d="m368.806 236.343c-4.243 11.659 1.789 24.596 13.447 28.839 2.532.921 5.123 1.358 7.673 1.358 9.193 0 17.844-5.68 21.167-14.807 2.055-5.647 1.788-11.757-.752-17.204s-7.049-9.579-12.697-11.634c-11.655-4.241-24.595 1.791-28.838 13.448zm14.095 5.13c1.414-3.886 5.725-5.897 9.612-4.482 1.883.685 3.386 2.063 4.232 3.878.847 1.816.936 3.852.251 5.734-1.415 3.887-5.73 5.899-9.615 4.483-3.884-1.413-5.894-5.726-4.48-9.613z"/><path d="m201.948 149.232c6.678 0 12.956-2.601 17.677-7.323 9.748-9.748 9.748-25.607 0-35.355-9.747-9.748-25.608-9.748-35.355 0-4.722 4.722-7.322 11-7.322 17.678s2.601 12.956 7.322 17.677c4.722 4.722 11 7.323 17.678 7.323zm-7.071-32.072c1.95-1.949 4.51-2.924 7.071-2.924s5.121.975 7.071 2.924c3.899 3.899 3.899 10.243 0 14.142-1.889 1.889-4.399 2.929-7.07 2.929s-5.183-1.041-7.071-2.929c-1.889-1.889-2.929-4.4-2.929-7.071-.001-2.671 1.039-5.182 2.928-7.071z"/><path d="m420.708 181.97c9.193 0 17.843-5.679 21.166-14.805 2.056-5.648 1.789-11.759-.751-17.206s-7.05-9.579-12.698-11.635c-5.646-2.055-11.756-1.789-17.204.751-5.447 2.541-9.579 7.049-11.634 12.697-4.243 11.658 1.789 24.595 13.447 28.839 2.532.922 5.124 1.359 7.674 1.359zm-7.025-25.067c.685-1.882 2.063-3.386 3.878-4.232 1.009-.47 2.085-.707 3.166-.707.865 0 1.732.151 2.569.456 1.883.685 3.386 2.063 4.233 3.878s.936 3.853.25 5.735c-1.415 3.886-5.729 5.896-9.613 4.482-3.887-1.414-5.898-5.726-4.483-9.612z"/><path d="m284.234 205.561c-2.056 5.648-1.789 11.758.751 17.206s7.049 9.579 12.697 11.635c2.511.914 5.113 1.369 7.708 1.369 3.241 0 6.471-.71 9.496-2.121 5.447-2.54 9.579-7.049 11.634-12.697 4.243-11.658-1.79-24.594-13.448-28.838-11.657-4.242-24.594 1.788-28.838 13.446zm28.191 10.261c-.685 1.883-2.063 3.386-3.878 4.233s-3.852.936-5.734.25c-1.882-.685-3.386-2.063-4.232-3.878-.847-1.815-.936-3.853-.25-5.736 1.414-3.886 5.727-5.896 9.613-4.481 3.885 1.415 5.896 5.727 4.481 9.612z"/><path d="m336.137 151.188c9.192 0 17.843-5.679 21.166-14.806 4.243-11.659-1.789-24.596-13.447-28.839-5.646-2.055-11.757-1.789-17.205.751-5.447 2.54-9.579 7.05-11.635 12.698-2.055 5.647-1.789 11.757.752 17.204 2.54 5.447 7.049 9.579 12.697 11.634 2.531.922 5.121 1.358 7.672 1.358zm-7.026-25.066c.685-1.883 2.063-3.386 3.878-4.233 1.008-.47 2.085-.707 3.166-.707.865 0 1.733.152 2.57.457 3.886 1.414 5.896 5.727 4.481 9.613-1.415 3.885-5.729 5.896-9.612 4.482-1.883-.685-3.386-2.063-4.233-3.878-.846-1.815-.935-3.852-.25-5.734z"/></g></g></svg>